<svg width="24" height="24" viewBox="0 0 24 24" fill="none" xmlns="http://www.w3.org/2000/svg">
<path d="M3 12C3 7.029 7.029 3 12 3C16.971 3 21 7.029 21 12C21 16.971 16.971 21 12 21C7.029 21 3 16.971 3 12Z" stroke="white" stroke-width="1.5" stroke-linecap="round" stroke-linejoin="round"/>
<path d="M6.65601 19.244C9.37201 14.745 14.245 11.997 19.5 12C20.005 12 20.506 12.025 21 12.074" stroke="white" stroke-width="1.5" stroke-linecap="round" stroke-linejoin="round"/>
<path d="M17.625 4.97705C14.779 8.47505 10.508 10.5031 6 10.5001C5.051 10.5001 4.104 10.4111 3.172 10.2341" stroke="white" stroke-width="1.5" stroke-linecap="round" stroke-linejoin="round"/>
<path d="M8.05603 3.90796C12.646 6.59996 15.465 11.524 15.462 16.846C15.463 18.071 15.314 19.292 15.019 20.481" stroke="white" stroke-width="1.5" stroke-linecap="round" stroke-linejoin="round"/>
</svg>
